<svg width="48" height="48" viewBox="0 0 48 48" fill="none" xmlns="http://www.w3.org/2000/svg">
<path d="M19.2 16.8H37.1999C38.1547 16.8 39.0704 16.4207 39.7455 15.7455C40.4207 15.0704 40.7999 14.1547 40.7999 13.2V10.8C40.7999 9.84517 40.4207 8.9295 39.7455 8.25437C39.0704 7.57924 38.1547 7.19995 37.1999 7.19995H19.2V16.8ZM16.8 7.19995H10.8C9.84517 7.19995 8.9295 7.57924 8.25437 8.25437C7.57924 8.9295 7.19995 9.84517 7.19995 10.8V13.2C7.19995 14.1547 7.57924 15.0704 8.25437 15.7455C8.9295 16.4207 9.84517 16.8 10.8 16.8H16.8V7.19995ZM24 28.7999H37.1999C38.1547 28.7999 39.0704 28.4207 39.7455 27.7455C40.4207 27.0704 40.7999 26.1547 40.7999 25.1999V22.8C40.7999 21.8452 40.4207 20.9295 39.7455 20.2544C39.0704 19.5792 38.1547 19.2 37.1999 19.2H24V28.7999ZM21.6 19.2H15.6C14.6452 19.2 13.7295 19.5792 13.0544 20.2544C12.3792 20.9295 12 21.8452 12 22.8V25.1999C12 26.1547 12.3792 27.0704 13.0544 27.7455C13.7295 28.4207 14.6452 28.7999 15.6 28.7999H21.6V19.2ZM37.1999 40.7999H28.7999V31.1999H37.1999C38.1547 31.1999 39.0704 31.5792 39.7455 32.2544C40.4207 32.9295 40.7999 33.8452 40.7999 34.7999V37.1999C40.7999 38.1547 40.4207 39.0704 39.7455 39.7455C39.0704 40.4207 38.1547 40.7999 37.1999 40.7999ZM20.4 31.1999H26.4V40.7999H20.4C19.4452 40.7999 18.5295 40.4207 17.8544 39.7455C17.1792 39.0704 16.8 38.1547 16.8 37.1999V34.7999C16.8 33.8452 17.1792 32.9295 17.8544 32.2544C18.5295 31.5792 19.4452 31.1999 20.4 31.1999Z" fill="black"/>
</svg>
