<svg width="48" height="48" viewBox="0 0 48 48" fill="none" xmlns="http://www.w3.org/2000/svg">
<path d="M39.9231 6H31.6157C31.0648 6 30.5366 6.21881 30.1471 6.6083C29.7576 6.99779 29.5388 7.52605 29.5388 8.07687C29.5388 8.62769 29.7576 9.15594 30.1471 9.54543C30.5366 9.93492 31.0648 10.1537 31.6157 10.1537H34.904L29.2411 15.8201C26.2972 13.62 22.6293 12.6165 18.9754 13.0116C15.3215 13.4066 11.9528 15.1709 9.54714 17.9494C7.1415 20.7279 5.87747 24.3144 6.00938 27.9872C6.14128 31.66 7.65935 35.1466 10.2581 37.7453C12.8569 40.3441 16.3434 41.8622 20.0163 41.9941C23.6891 42.126 27.2756 40.862 30.0541 38.4563C32.8326 36.0507 34.5969 32.682 34.9919 29.0281C35.387 25.3742 34.3835 21.7062 32.1833 18.7623L37.8463 13.096V16.3843C37.8463 16.9352 38.0651 17.4634 38.4546 17.8529C38.8441 18.2424 39.3723 18.4612 39.9231 18.4612C40.474 18.4612 41.0022 18.2424 41.3917 17.8529C41.7812 17.4634 42 16.9352 42 16.3843V8.07687C42 7.52605 41.7812 6.99779 41.3917 6.6083C41.0022 6.21881 40.474 6 39.9231 6ZM27.879 34.8096C26.4266 36.2615 24.5763 37.25 22.562 37.6504C20.5478 38.0507 18.4601 37.8448 16.5628 37.0587C14.6656 36.2727 13.044 34.9417 11.9031 33.2341C10.7623 31.5265 10.1534 29.5189 10.1534 27.4653C10.1534 25.4116 10.7623 23.4041 11.9031 21.6965C13.044 19.9889 14.6656 18.6579 16.5628 17.8718C18.4601 17.0857 20.5478 16.8798 22.562 17.2802C24.5763 17.6805 26.4266 18.6691 27.879 20.121C29.8232 22.0708 30.9149 24.7119 30.9149 27.4653C30.9149 30.2187 29.8232 32.8598 27.879 34.8096Z" fill="black"/>
</svg>
