<svg width="48" height="48" viewBox="0 0 48 48" fill="none" xmlns="http://www.w3.org/2000/svg">
<path d="M34.4999 9H13.4999C13.3673 9 13.2402 9.05268 13.1464 9.14645C13.0526 9.24021 12.9999 9.36739 12.9999 9.5V10.7C13.0098 11.7472 13.2734 12.7763 13.768 13.6994C14.2626 14.6224 14.9735 15.4118 15.8399 16L19.9999 18.96C20.8399 19.516 21.5399 20.26 22.0399 21.138C22.5538 22.0042 22.8249 22.9928 22.8249 24C22.8249 25.0072 22.5538 25.9958 22.0399 26.862C21.5399 27.738 20.8399 28.484 19.9999 29.04L15.8399 32C14.9735 32.5882 14.2626 33.3776 13.768 34.3006C13.2734 35.2237 13.0098 36.2528 12.9999 37.3V38.5C12.9999 38.6326 13.0526 38.7598 13.1464 38.8536C13.2402 38.9473 13.3673 39 13.4999 39H34.4999C34.6325 39 34.7597 38.9473 34.8535 38.8536C34.9473 38.7598 34.9999 38.6326 34.9999 38.5V37.3C34.99 36.2528 34.7265 35.2237 34.2319 34.3006C33.7373 33.3776 33.0263 32.5882 32.1599 32L27.9999 29.04C27.1588 28.4837 26.46 27.7377 25.9599 26.862C25.4461 25.9958 25.175 25.0072 25.175 24C25.175 22.9928 25.4461 22.0042 25.9599 21.138C26.4599 20.262 27.1599 19.516 27.9999 18.96L32.1599 16C33.0263 15.4118 33.7373 14.6224 34.2319 13.6994C34.7265 12.7763 34.99 11.7472 34.9999 10.7V9.5C34.9999 9.36739 34.9473 9.24021 34.8535 9.14645C34.7597 9.05268 34.6325 9 34.4999 9Z" fill="black"/>
</svg>
