<svg width="48" height="48" viewBox="0 0 48 48" fill="none" xmlns="http://www.w3.org/2000/svg">
<path fill-rule="evenodd" clip-rule="evenodd" d="M11.6459 28.354C12.0311 29.2073 12.1048 30.1686 11.8542 31.0706C11.6035 31.9726 11.0445 32.7582 10.2743 33.2904C9.50413 33.8227 8.57168 34.0679 7.63931 33.9834C6.70695 33.899 5.83374 33.4902 5.17176 32.8282C4.50978 32.1662 4.10096 31.293 4.0165 30.3606C3.93204 29.4283 4.17729 28.4958 4.70953 27.7256C5.24178 26.9555 6.0273 26.3964 6.92931 26.1458C7.83132 25.8951 8.79267 25.9688 9.64594 26.354L14.3539 21.646C14.079 21.0368 13.9612 20.3684 14.0111 19.7019C14.0611 19.0354 14.2772 18.3921 14.6398 17.8306C15.0024 17.2692 15.4999 16.8076 16.0869 16.4879C16.6739 16.1683 17.3316 16.0008 17.9999 16.0008C18.6683 16.0008 19.326 16.1683 19.913 16.4879C20.4999 16.8076 20.9974 17.2692 21.3601 17.8306C21.7227 18.3921 21.9388 19.0354 21.9888 19.7019C22.0387 20.3684 21.9208 21.0368 21.6459 21.646L26.3539 26.354C26.871 26.1196 27.4322 25.9983 27.9999 25.9983C28.5677 25.9983 29.1289 26.1196 29.6459 26.354L36.3539 19.646C35.9688 18.7927 35.8951 17.8314 36.1457 16.9294C36.3963 16.0274 36.9554 15.2418 37.7256 14.7096C38.4957 14.1773 39.4282 13.9321 40.3606 14.0166C41.2929 14.101 42.1661 14.5098 42.8281 15.1718C43.4901 15.8338 43.8989 16.707 43.9834 17.6394C44.0678 18.5717 43.8226 19.5042 43.2903 20.2744C42.7581 21.0445 41.9726 21.6036 41.0706 21.8542C40.1686 22.1049 39.2072 22.0312 38.3539 21.646L31.6459 28.354C31.9208 28.9632 32.0387 29.6316 31.9888 30.2981C31.9388 30.9646 31.7227 31.6079 31.3601 32.1694C30.9974 32.7308 30.4999 33.1924 29.913 33.5121C29.326 33.8317 28.6683 33.9992 27.9999 33.9992C27.3316 33.9992 26.6739 33.8317 26.0869 33.5121C25.4999 33.1924 25.0024 32.7308 24.6398 32.1694C24.2772 31.6079 24.0611 30.9646 24.0111 30.2981C23.9612 29.6316 24.079 28.9632 24.3539 28.354L19.6459 23.646C19.1289 23.8804 18.5677 24.0017 17.9999 24.0017C17.4322 24.0017 16.871 23.8804 16.3539 23.646L11.6459 28.354Z" fill="black"/>
</svg>
