<svg width="48" height="48" viewBox="0 0 48 48" fill="none" xmlns="http://www.w3.org/2000/svg">
<path d="M24 16.8C24 15.8059 23.1941 15 22.2 15C21.2059 15 20.4 15.8059 20.4 16.8V20.4H16.8C15.8059 20.4 15 21.2059 15 22.2C15 23.1941 15.8059 24 16.8 24H20.4V27.6C20.4 28.5941 21.2059 29.4 22.2 29.4C23.1941 29.4 24 28.5941 24 27.6V24H27.6C28.5941 24 29.4 23.1941 29.4 22.2C29.4 21.2059 28.5941 20.4 27.6 20.4H24V16.8Z" fill="black"/>
<path fill-rule="evenodd" clip-rule="evenodd" d="M32.3118 34.8574C29.5404 37.0743 26.025 38.4 22.2 38.4C13.253 38.4 6 31.147 6 22.2C6 13.253 13.253 6 22.2 6C31.147 6 38.4 13.253 38.4 22.2C38.4 26.025 37.0743 29.5404 34.8574 32.3118L41.4728 38.9272C42.1757 39.6301 42.1757 40.7698 41.4728 41.4728C40.7698 42.1757 39.6301 42.1757 38.9272 41.4728L32.3118 34.8574ZM9.6 22.2C9.6 15.2412 15.2412 9.6 22.2 9.6C29.1588 9.6 34.8 15.2412 34.8 22.2C34.8 25.5947 33.4575 28.6758 31.2745 30.9415C31.2129 30.9889 31.1536 31.0408 31.0972 31.0972C31.0408 31.1536 30.9889 31.2129 30.9415 31.2745C28.6758 33.4575 25.5947 34.8 22.2 34.8C15.2412 34.8 9.6 29.1588 9.6 22.2Z" fill="black"/>
</svg>
