<svg width="48" height="48" viewBox="0 0 48 48" fill="none" xmlns="http://www.w3.org/2000/svg">
<path d="M16.8 20.5H27.6C28.5941 20.5 29.4 21.3059 29.4 22.3C29.4 23.2941 28.5941 24.1 27.6 24.1H16.8C15.8059 24.1 15 23.2941 15 22.3C15 21.3059 15.8059 20.5 16.8 20.5Z" fill="black"/>
<path fill-rule="evenodd" clip-rule="evenodd" d="M22.2 38.4C26.025 38.4 29.5404 37.0743 32.3118 34.8574L38.9272 41.4728C39.6301 42.1757 40.7698 42.1757 41.4728 41.4728C42.1757 40.7698 42.1757 39.6301 41.4728 38.9272L34.8574 32.3118C37.0743 29.5404 38.4 26.025 38.4 22.2C38.4 13.253 31.147 6 22.2 6C13.253 6 6 13.253 6 22.2C6 31.147 13.253 38.4 22.2 38.4ZM22.2 9.6C15.2412 9.6 9.6 15.2412 9.6 22.2C9.6 29.1588 15.2412 34.8 22.2 34.8C25.5947 34.8 28.6758 33.4575 30.9415 31.2745C30.9889 31.2129 31.0408 31.1536 31.0972 31.0972C31.1536 31.0408 31.2129 30.9889 31.2745 30.9415C33.4575 28.6758 34.8 25.5947 34.8 22.2C34.8 15.2412 29.1588 9.6 22.2 9.6Z" fill="black"/>
</svg>
